# xmcd
#
# Track frame offsets:
#	150
#	12940
#	25914
#	39358
#	50722
#	65161
#	78467
#	96880
#	110719
#	130159
#	142894
#	163400
#	175987
#	194787
#	211471
#	223688
#	239189
#
# Disc length: 3361 seconds
#
# Revision: 3
# Processed by: cddbd v1.5.2PL0 Copyright (c) Steve Scherf et al.
# Submitted via: audiograbber 1.83.01
#
DISCID=0c0d1f11
DTITLE=Various Artist - MOTOWN Love - CD3
DYEAR=2009
DGENRE=R&B
TTITLE0=Marvin Gaye and Tammi Tarrell - You're All I Need To Get By
TTITLE1=Mary Wells - My Guy
TTITLE2=Smokey Robinson and The Miracles - You're Really Got A Hold On Me
TTITLE3=The Velvelettes - He Was Really Sayin' Somethin'
TTITLE4=Lionel Richie - Stuck On You
TTITLE5=J.J. Barnes - Everytime I See You, I Go Wild!
TTITLE6=Four Tops - Don't Walk Away
TTITLE7=Diana Ross - Reach Out And Touch (Somebody's Hand)
TTITLE8=Shanice - I Love Your Smile
TTITLE9=Kim Weston - I'm Still Loving You
TTITLE10=Syreeta - Your Kiss Is Sweet
TTITLE11=Gladys Knight and The Pips - I Heard It Through The Grapevine
TTITLE12=Jr. Walker and The All Stars - Walk In The Night
TTITLE13=Commodores - Still
TTITLE14=The Tamptations - I Wish It Would Rain
TTITLE15=Diana Ross - Touch Me In The Morning
TTITLE16=Stevie Wonder - My Cherie Amour
EXTD=freedb: 0c0d1f11, cdplayer.ini: 1AD1531, Track frame offsets: 150 12940 25
EXTD=914 39358 50722 65161 78467 96880 110719 130159 142894 163400 175987 19478
EXTD=7 211471 223688 239189, Disc length: 3361 seconds.
EXTT0=
EXTT1=
EXTT2=
EXTT3=
EXTT4=
EXTT5=
EXTT6=
EXTT7=
EXTT8=
EXTT9=
EXTT10=
EXTT11=
EXTT12=
EXTT13=
EXTT14=
EXTT15=
EXTT16=
PLAYORDER=
